<svg width="26" height="26" viewBox="0 0 26 26" fill="none" xmlns="http://www.w3.org/2000/svg">
<path fill-rule="evenodd" clip-rule="evenodd" d="M13.0012 0.199951C9.52491 0.199951 9.08864 0.215151 7.72329 0.277285C6.36061 0.339686 5.43047 0.555421 4.61659 0.871958C3.77472 1.19889 3.06058 1.63623 2.3491 2.34797C1.63709 3.05945 1.19976 3.77359 0.871753 4.6152C0.554416 5.42934 0.338414 6.35975 0.27708 7.7219C0.216012 9.08724 0.200012 9.52378 0.200012 13.0001C0.200012 16.4764 0.215479 16.9113 0.277346 18.2767C0.340014 19.6394 0.555749 20.5695 0.872019 21.3834C1.19922 22.2252 1.63656 22.9394 2.3483 23.6509C3.05951 24.3629 3.77365 24.8013 4.61499 25.1282C5.4294 25.4447 6.35981 25.6605 7.72222 25.7229C9.08757 25.785 9.52358 25.8002 12.9996 25.8002C16.4762 25.8002 16.9111 25.785 18.2765 25.7229C19.6391 25.6605 20.5704 25.4447 21.3848 25.1282C22.2264 24.8013 22.9394 24.3629 23.6507 23.6509C24.3627 22.9394 24.8 22.2252 25.128 21.3836C25.4427 20.5695 25.6587 19.6391 25.7227 18.2769C25.784 16.9116 25.8 16.4764 25.8 13.0001C25.8 9.52378 25.784 9.08751 25.7227 7.72216C25.6587 6.35948 25.4427 5.42934 25.128 4.61546C24.8 3.77359 24.3627 3.05945 23.6507 2.34797C22.9386 1.63597 22.2266 1.19863 21.384 0.871958C20.568 0.555421 19.6373 0.339686 18.2746 0.277285C16.9093 0.215151 16.4746 0.199951 12.9972 0.199951H13.0012ZM11.8529 2.50661C12.1937 2.50607 12.574 2.50661 13.0012 2.50661C16.4188 2.50661 16.8239 2.51887 18.1735 2.58021C19.4215 2.63727 20.0988 2.84581 20.55 3.02101C21.1474 3.25301 21.5732 3.53035 22.021 3.97835C22.469 4.42636 22.7463 4.85303 22.9789 5.45037C23.1541 5.90104 23.3629 6.57838 23.4197 7.82639C23.481 9.17574 23.4943 9.58108 23.4943 12.9971C23.4943 16.4132 23.481 16.8185 23.4197 18.1678C23.3626 19.4158 23.1541 20.0932 22.9789 20.5439C22.7469 21.1412 22.469 21.5665 22.021 22.0143C21.573 22.4623 21.1476 22.7396 20.55 22.9716C20.0994 23.1476 19.4215 23.3556 18.1735 23.4127C16.8241 23.474 16.4188 23.4874 13.0012 23.4874C9.58326 23.4874 9.17818 23.474 7.82884 23.4127C6.58082 23.3551 5.90348 23.1466 5.45201 22.9714C4.85467 22.7393 4.428 22.462 3.98 22.014C3.53199 21.566 3.25466 21.1404 3.02212 20.5428C2.84692 20.0921 2.63812 19.4148 2.58132 18.1668C2.51998 16.8174 2.50771 16.4121 2.50771 12.9939C2.50771 9.57575 2.51998 9.17254 2.58132 7.82319C2.63838 6.57518 2.84692 5.89784 3.02212 5.44664C3.25412 4.8493 3.53199 4.42263 3.98 3.97462C4.428 3.52662 4.85467 3.24928 5.45201 3.01674C5.90322 2.84074 6.58082 2.63274 7.82884 2.57541C9.00965 2.52207 9.46725 2.50607 11.8529 2.50341V2.50661ZM19.8338 4.63197C18.9858 4.63197 18.2978 5.31917 18.2978 6.16745C18.2978 7.01546 18.9858 7.70347 19.8338 7.70347C20.6818 7.70347 21.3698 7.01546 21.3698 6.16745C21.3698 5.31944 20.6818 4.63197 19.8338 4.63197ZM13.0012 6.42665C9.37106 6.42665 6.42783 9.36988 6.42783 13C6.42783 16.6302 9.37106 19.5721 13.0012 19.5721C16.6314 19.5721 19.5736 16.6302 19.5736 13C19.5736 9.36988 16.6314 6.42665 13.0012 6.42665ZM13.0012 8.73334C15.3575 8.73334 17.2679 10.6435 17.2679 13C17.2679 15.3563 15.3575 17.2668 13.0012 17.2668C10.6446 17.2668 8.73447 15.3563 8.73447 13C8.73447 10.6435 10.6446 8.73334 13.0012 8.73334Z" fill="white"/>
</svg>
