<svg width="48" height="48" viewBox="0 0 48 48" fill="none" xmlns="http://www.w3.org/2000/svg">
<path fill-rule="evenodd" clip-rule="evenodd" d="M0 24C0 10.7452 10.7452 0 24 0C37.2548 0 48 10.7452 48 24C48 37.2548 37.2548 48 24 48C10.7452 48 0 37.2548 0 24Z" fill="#0077B5"/>
<path d="M17.3188 14.8227C17.2835 13.2204 16.1377 12 14.277 12C12.4164 12 11.2 13.2204 11.2 14.8227C11.2 16.3918 12.3805 17.6473 14.2064 17.6473H14.2412C16.1377 17.6473 17.3188 16.3918 17.3188 14.8227Z" fill="white"/>
<path d="M16.9606 19.8779H11.5216V36.2196H16.9606V19.8779Z" fill="white"/>
<path d="M30.3132 19.4941C33.8922 19.4941 36.5754 21.8303 36.5754 26.8497L36.5752 36.2196H31.1365V27.4768C31.1365 25.2808 30.3494 23.7823 28.3805 23.7823C26.8779 23.7823 25.9829 24.7925 25.5898 25.7682C25.446 26.1179 25.4107 26.6051 25.4107 27.0935V36.22H19.9711C19.9711 36.22 20.0428 21.4117 19.9711 19.8783H25.4107V22.193C26.1326 21.0803 27.4255 19.4941 30.3132 19.4941Z" fill="white"/>
</svg>
